<mxfile host="65bd71144e">
    <diagram name="SystemStructure" id="74b105a0-9070-1c63-61bc-23e55f88626e">
        <mxGraphModel dx="729" dy="607" grid="1" gridSize="10" guides="1" tooltips="1" connect="1" arrows="1" fold="1" page="1" pageScale="1.5" pageWidth="413" pageHeight="291" background="none" math="0" shadow="0">
            <root>
                <mxCell id="0" style=";html=1;"/>
                <mxCell id="1" style=";html=1;" parent="0"/>
                <mxCell id="10b056a9c633e61c-30" value="システム構成" style="text;strokeColor=none;fillColor=none;html=1;fontSize=24;fontStyle=1;verticalAlign=middle;align=center;" parent="1" vertex="1">
                    <mxGeometry x="82" y="40" width="1590" height="40" as="geometry"/>
                </mxCell>
                <mxCell id="mlFDoJzG74F5DoCi1j2A-1" value="" style="image;html=1;image=img/lib/clip_art/computers/Database_128x128.png" parent="1" vertex="1">
                    <mxGeometry x="1063" y="166" width="99" height="140" as="geometry"/>
                </mxCell>
                <mxCell id="mlFDoJzG74F5DoCi1j2A-2" value="" style="image;html=1;image=img/lib/clip_art/computers/Server_Rack_128x128.png" parent="1" vertex="1">
                    <mxGeometry x="803" y="166" width="123.3" height="140" as="geometry"/>
                </mxCell>
                <mxCell id="mlFDoJzG74F5DoCi1j2A-6" value="" style="shape=image;imageAspect=0;aspect=fixed;verticalLabelPosition=bottom;verticalAlign=top;image=data:image/png,iVBORw0KGgoAAAANSUhEUgAACAAAAAGXCAYAAAAnXLAYAAAACXBIWXMAAAsTAAALEwEAmpwYAAAAAXNSR0IArs4c6QAAAARnQU1BAACxjwv8YQUAAGMsSURBVHgB7f0xliPHtTZqv+d8Mr7fEo/3ewp51xPlXU+pERxqBARHQHIELI2A5AgKHAEp81oFjUDUCJAagSjzWrqIg6qvq7urCkAiAWRkPs9ae1WzpbUkVmZGZMTesTMBpu7LXXwSAAAAAAAAAKBZZRfbXdwFAAAAAAAAAGjW/S7+vYt/RhcAAAAAAAAAAGhSyT75/xT3AQAAAAAAAACa85D3CwBqdAEAAAAAAAAAmrHKx8n/Gg8BAAAAAAAAAJqxzcsFADVWAQAAAAAAAAAm75u8nvyvUYsDPgkAAAAAAAAAMFllF//M2wUANe4CAAAAAAAAAEzWfQ4n/2vUIoESAAAAAAAAAGBySo5L/j/FfQAAAAAAAACAydnmtAKAGl0AAAAAAAAAgMlY5fTkf42HAAAAAAAAAACTMeT0/1OsAgAAAAAAAADc3DcZnvyv8c9dfBIAAAAAAAAA4GZKzkv+P8VdAAAAAAAAAICbuc84BQC1C0AJAAAAAAAAAHB1n2ac5P9TPAQAAAAAAABYrP8IcCvbjH9q/4+72AS4hM928UkYSx/jFXCaVRjTz48BAAAAcGtddLp+yU+7+CVAE1YZ9/S/LgBweXe5zHO71KifLlFQARxrlbbGuBaiBAAAAGAa1mlrX+Va0WWA/wxwbWUX3+Qyul18FeASvotKuzHV5L/xCjjWpd6dlur77DuxAAAAADAzCgDg+j7PZU9c1Q1yp2phfDX5/30Y05cxXgGHreK0+pj67IvaAAAAAJghBQBwXSX7NuKX5FQtXE5NmPRhLMYr4BhO/4/rh5jLAAAAAABGcZ/rfRekBLiEVab1DaDW45/RBQB43SptjWlTj20AAAAApmedtvZYrhVdBtABAK6ny34T+1ruA1zCOk5OjkkXAOAt34Qx/TkAAAAAzJoCALieayfkuwysDAIO+iKM6cvoAgB8bBUdjcbUZ1/EBgAAAMCMKQCA61jlNhvYugDAZWweg3HoAgC8xOn/cTn9DwAAALAACgDg8kput4FdIqkGlyKRMi5dAIDnVnH6f0x9nP4HAAAAWAQFAHB5NalVcju1+EBSDca3iS4AY9IFAHjO6f9xKVoDAAAAWAgFAHBZJbdPaNWkmk10uAwJlXHpAgBUqzj9P6Y+Tv8DAAAALIYCALisqSTeaxFCCTC2TXQBGJMuAEClcHFcXwQAAACAxVAAAJezeoypuA9wCV+HMekCAMu2iqLFMf0UhWoAAAAAi6IAAC5naqfXuscAxvXzLn4IY9EFAJbN6f9xKVIDAAAAWBgFAHAZq0zz9JouAHAZd7v4JYxFFwBYplWc/h/Tehd9AAAAAFiU/xVgbCX7RPsUk1f1/9N/RCtYGFtN/v//osvGWP73Lv7fGKtgaX6M4p8x/SmK0wAAAIA2fLaLT8OHavfhPifSAQDGV1vXlkyXk7VwGd9FomVMxipYllWc/h/TOk7/AwAAACySAgAYV8l+A3vKakLN93VhfDX5/30YSx2rvgqwFN5NxvXnAAAAALBICgBgXN+mDTWp1gUYmy4A49IFAJZhFaf/x7SO0/8AAAAAi6UAAMazyv4bJa1w0g7GpwvAuHQBgGXwTjKePk7/AwAAACyaAgAYT2ub1110AYBL0AVgXLoAwLyt4vT/mH6I0/8AAAAAi6YAAMZRk/8l7bmPxBqMrSb/nb4cjy4AMG9O/4+nz779PwAAAAALpgAAzleyP73WohKJNbiE2gWgD2PRBQDmaRWn/8dUi8/6AAAAALBoCgDgfK2e/n8isQaX8XUYiy4AME9O/4+nj9P/AAAAAEQBAJyrpN3T/09qYu3bAGP7aRebMBbFSjAvqzj9PyafngEAAADgfygAgPPcZx5Wu+gCjE1CZjy6AMC8OP0/nj5O/wMAAADwSAEADLfKvJLmNuJhfJvoAjAmXQBgHlZx+n9Mis0AAAAA+D8UAMBwc0uYd2n/cwYwRRIz49EFAOZB0eF4+jj9DwAAAMAzCgBgmLpxXTI/9d/L6VoY1ya6AIxJFwBo2ypO/4/piwAAAADAMwoA4HQl8z2BWuJ0LVyCLgDj0QUA2ub0/3g2UWAGAAAAwAcUAMDp5n5Kvp6uLQHGtNnFD2EsugBAm1bxjjEmp/8BAAAA+IgCADhNyX7zes5qUs3pPBjfXRiLLgDQJu8X41nvog8AAAAAfEABAJzmIcuw2kUXYEz9Lr4PY9EFANqyitP/Y/JpGQAAAABepAAAjrfKsjaundKD8d3t4pcwBl0AoC3eK8azjtP/AAAAALxCAQAcb2kb113m/7kDuLaa/NcFYDy6AEAbVnH6f0xO/wMAAADwKgUAcJya/C9Znm8juQZj+y66AIxFFwCYvhKn/8e0jtP/AAAAALxBAQAcVrJv271EkmswPl0AxqULAEzb53H6fyx1/nD6HwAAAIA3KQCAw5Z+aq0m10qAMekCMB6FSjBdJT4nNKZaPNYHAAAAAN6gAADe9mlsXNfk2n2AMTnFOS5dAGCanP4fT599+38AAAAAeJMCAHjbj6HqHgMYT+0C0Icx6AIA01OiiHJMtWisDwAAAAAcoAAAXreKU2vPLf1TCHAJugCMRxcAmBan/8fTx+l/AAAAAI6kAABeViLh/aEuTtjC2Na72IQx6AIA01Hi9P+YFIsBAAAAcDQFAPAyp9ZeVosinLCFcUnsjEcXAJgG71Hj6eP0PwAAAAAnUAAAHyu7uAsvccIWxreJLgBjMUbB7ZU4/T8mRWIAAAAAnEQBAHxM6/+31d9PCTAmCZ7x6AIAt+X0/3j6OP0PAAAAwIkUAMD7uji1doz7AGPaRBeAsegCALdT4j1qTIrDAAAAADiZAgB4n8T2cbrHAMYj0TMeXQDgNpz+H88mTv8DAAAAMIACAHhnFZvWp1AsAePa7OKHMAZdAOD6Spz+H9PXAQAAAIABFADAXsn+2/Ycr0SCDcZ2F8aiCwBcl9P/41nv4ucAAAAAwAAKAGCvJopKOFUtmpBgg/H0u/g+jEEXALieEqf/x+STMAAAAAAMpgAAnGQ/R02w6ZwA47rbxS9hDLoAwHU4/T+edfbFYAAAAAAwiAIAkMA+Vy2eKAHGUpP/ugCMQxcAuLwSp//H5PQ/AAAAAGdRAMDSrWLTegz3Acb0XXQBGIsuAHBZTv+PZx2n/wEAAAA4kwIAls7p/3F0jwGMQxeA8egCAJdTopByTE7/AwAAAHA2BQAs2SpOrI1JFwAYly4A49EFAC7D6f/x1OR/HwAAAAA4kwIAlqrE6f+xlV3cBRiLLgDj0QUAxlfi9P9Y+uzb/wMAAADA2RQAsFQ1+V/C2JyyhXHdxYnQsRifYFxO/4/nhxjrAQAAABiJAgCWqMSJtUupyTWdFWBcvgk9Dl0AYDwl3qXG0kcHJQAAAABGpACAJfo2XFJNsHUBxrLexc9hDLoAwDic/h+PIi8AAAAARqUAgKVZ7eKzcGm6AMC4vg5j0AUAzlfi9P9Y+uyLvAAAAABgNAoAWBqJ6evoogsAjGnzGJxPFwA4j9P/43H6HwAAAIDRKQBgSWryv4RruY8kG4xJomgcdVxSDAbDlDj9P5Y+Tv8DAAAAcAEKAFiKEhvW11ai1TaMaRNdAMZSx6YS4FRO/49HURcAAAAAF6EAgKVw+v82tNqGcUkYjUcXADhNiWLKsWzi9D8AAAAAF6IAgCUosWF9KzX5/22AsWyiC8BYVlEYBqdw+n88irkAAAAAuBgFACzBfbil1S66AGP5IoxFFwA4TonP+oxlHYVcAAAAAFyQAgDmbhXJ5ymQZIPx9Lv4IYxhFSea4Rh1HvdJn3E4/Q8AAADARSkAYO4knqehi88wwJjudvFLGIN5At5WYg4fyzr7Ii4AAAAAuBgFAMxZTeqUMBVOD8J4+l18H8awirkC3qJIZjxO/wMAAABwcQoAmKsS36qdmhLXBMb0XXQBGIsEJ7ysxOn/sazj9D8AAAAAV6AAgLly2nyavoyTtjCWmvzXBWAcqxib4CWKY8bj9D8AAAAAV6EAgDkqcVptqmpRhmQCjEcXgPEYm+B9Jd6nxlKLtfoAAAAAwBUoAGCOHsKUrXbRBRiDLgDjWUUXAHhOUcw4+uyLtQAAAADgKhQAMDerSOC0QFIBxlMTS30Yg7EJ9kqc/h/LDzFGAwAAAHBFCgCYG8mbNnSRWICx1C4Avi09jlUUkUHlfWoc/S7uAgAAAABXpACAOamb1SW04ttdfBJgDOs4YToWiU+WrkSR3lgUZwEAAABwdQoAmIsSJ6xaU5P/XwUYyxdhDKsoJmPZFMGMo8++OAsAAAAArkoBAHNhs7pNX0aiDcayeQzOZ05hqUqc/h+L0/8AAAAA3IQCAObg09isblXtAnAfYCwSTuNYRXESy6T4ZRx9nP4HAAAA4EYUADAHP4aWdY8BnG8TXQDGIhHK0pQoqByLYiwAAAAAbkYBAK1bxSnNOZBog/FIPI1jFfMLy2IuHkcfp/8BAAAAuCEFALSsxGb1XHS7+CrAGDbRBWAs5hiWosTp/7F8EQAAAAC4IQUAtOzzOJ05JzXR9kmAMUhAjWMV8wzLoNhlHD9FARYAAAAAN6YAgFaVXdyFOanJf10AYBz9Ln4IY5AYZe5KnP4fy9cBAAAAgBtTAECrJGTmqV7XEmAMd7v4JZxrFeMS8+adahzr7IuvAAAAAOCmFADQoi5Oqs3ZfYAx9Lv4PoxBgpS5KvFONZY/BwAAAAAmQAEALZIgnrfuMYDzfRddAMawii4AzJPilnGs4/Q/AAAAABPxq0BbVpGEWYJa5PHbAOeqyf/aBUCS73z1d/hFYD5KnP4fi9P/y1We/Swf/N1vHn9+8hgf/vkY/bM///Is/vX4s3/2d09/BgBen6N/nZfn5ZLT9M/+/NIc/cuz/04fxaLAYU9jUom1BTCC/wi0o+ziIQoAluLr7E8vA+epi4FtTlsU8LJamNQH5qEW263CudZRHDRnZRefPv6sm26fPP7z08bc1DzfrPt5F//Iu6TDzwGAeXhKerU0R1d93s3T9Wedp3/Ou3kbmLeSd+PU79Le2uJfjz/7GLO4nPUuPg8f+uMuNjmRAgBa8u0uvgpLUV8ufhvVhjCGu+gCMIZ1JPqYh5J9YRDn6bNfhPWhZU8bbnXz7Xd5P+k/N08bdn+PzTsApm9Jc3RlnoZ5+DTLWVvUffu/xpjFeNZRAPASBQDMWomN6iX6LvtOAMB5dAEYjy4AzIHT/+Oorf/vQkueTtk8bch10V3s6URPjbp5t4kCXACuzxz9sg/n6ackGzANdczqsh+3nsawJTNmca51FAC8RAEAs2ajerkk22Acq+zHUs6zyf6lC1pVoqhyDH2c/m9BTSZ0u/jD48+lb8gd62nT7i+xaQfAZdQ5+rO8S/abo4/X5/3CPSdu4Tqery2ekv0O2hzWZz9WPY1ZfeB16ygAeMmgAgBowWoX/xaLjYcAY9mmred/qtEF2nWftp63qcYqTNFTMqF+Omybtu6pKcffHn+nXQBgGHP05WK7ix+zfz8tAcbylPCv41Z9H25lTGhhzLrPfk5QQMGH1mnrfr5WdBlABwBasI0X2KVT4QTj6KKoZgyb6AJAm0qc/h9Dn32HIqbhqe3mf0eC+hpqW89N9t0B6s8+LNl3u/h1lq1+DqbPcpS8+y7708/q17ndJn4dl3w6cJq6vOvC04VrqR0BNnk3VwPHK9knpuvawgn/69js4odYW7C3jg4AL5EfY5ZWaasSR1wmtgHG8pC2nv+pRhdoz33aes6mGqtwa12cIJxKPMSJwyXbpq379RLRZX6eTjx+lf27Qz1ZvM10r8E2TEmX/Rz9z0z3nllSbPPupC3wsm4X38R7zRTiIdYWS7dOW/fstaILzEyJiVe8i7sAY+jS1rM/1XgItKWkrWdsqrENt9JFQmHq8RAFMkuzTVv36CVilfbVE45Pyf5t2vr9/zvm5inoYo5uIer1uY8kAlRd9kl/49Z04yH79yxdGJZlnbbu02tFF5iZ+7T1EIrLRn0hM+HDOB7S1vM/1egC7bhPW8/XVGMVrqnExlyLIcGwHNu0dW9eIlZpT11Xr7J/Tucwvm7DLXQxR7f+3NzHKVuWpc5/3+zib2nreRXWFkuyTlv35rWiC8xISVsPoLhO1Ipy4Hxd2nr2pxoPgTaUtPVsTTW24Rrqxlw9ifqQtu4P8fpzs4pC3rmq17eF+/CSsUob5jy2bsO1mKPnGTUZuoq5mnmq93X9BMZD2nouxcuxjU8EzN06bd2T14ouMCP1G3MtPYDietEFGMND2nr2jUkw3H3aeq4878tUW1BrHzzfeOoKUMKcbNPWfXiJWGXauuz3V+Y8tm7DpXUxRy8hzNXMydNpf+PWfOM+xqs5Wqet+/Ba0QVmYpW2Hj5x3XgIMIYubT37xiQYpqStZ8qzvjxdFKUtLe5jA2Mutmnr3rtE3GV6nk5pL6XF8TZcShdz9FLjIT59RZu6GLeWOF51YS7Waev+u1Z0gZnYpq2HT1w/ugBjWKetZ9+YBKe7T1vP01SjhDEtLTklXo6HSC60bpu27rlLxF2mY6mnHbdhTE/3Uf29Tv3ai8vHNtpt04ZVJP6XHttYW8zBOm3dd9eKLjAD36StB0/cJrbxbTIYQ0lbz/5U4yEwTSVtPUtTjfswFq04xUuxjc26VtVr18I9dsm4yzR8meWOrdswBnO0eCt8HoApeioq3qat50lcNraxtmjZOm3db9eKLtC4EhO2OD7uAozhLm09+1ONLjA992nrOZpqlHAuSQVxTGxjs6419Zq1cG9dMr7LbXVxHbbhHOZocWrcx/sxt2XcEsfENtYWLVqnrfvsWtEFGnefth46cduoL3m6AMD56nNk0XR+PASmpaStZ2iqcR/OYXNODImHXXwaWrBNW/fWJeI+t1F28WPa/J2NHdswhDlanBv3UQjA9S25440YFttdfBZasU5b99e1ossA/xmYhhIVWZymLla/DXCuX3bxfThXF9WYTMs3YQx/DkOtdvG37DvNKNrkFF329859JBbgJTX5UZ8Rm9kMVe+hbczRnGeV/X1kvuYauuzvt9p5x7jFKUr2RZM/xljFwigAYCruA6dbRcINxlAXUL+Ec0m4MhUlCivHsN5FH07VZX+C22Yw51plv9Fb51cbvbB/DurmteQHQ3WRQGN8qygE4HK67NcWNUpguFo4aaxiURQAMAWrSOIynIQbnE8XgHF0MZ8xDebG8/Vx+v9UJe8257rAeO6yP+28CkxPyXXUz2I49c9Q9f6RQOPSVtkn12q3zhI4T8k+UWttwdhW2d9Xq8DMKQBgCmxSc44uJmwYgy4A4zCncWsl5sUx/BCn/4/19A3hmpjqApdRst8E1rqTJfo8ErcM8/TpRHM01/RVJNc4z9PaYhW4jJL92mIb71fMmAIAbq1O6CVwHm1B4Xw1+e+06/m62FzjthShnK/Pvv0/h3XZb87dxbsY1/HUutNYx1LUe30dYyynq+NlnaO/ClxfieQap+tibcF1lVhbMGMKALilEgsRxlHiXoIx1C4AfTiXhQO3UuKUxBhqMVQf3lI35J5acpbA9d1FUoFpuGSCop7cvgucpmQ/P+uYwhSU+OY2hz11K6lj16eB67uLtQUzpACAW3JqmzF9GZM0jEEXgPN10QWA21B8cr4+Tv8f8nQCexW4rRIndri9S+1p1GSZIndOVfdFtPtnilbxWQBe1kW3EqahxNqCmVEAwK2UeOljXE/fnwXOs97FJpzLeMS1lXi3GoMiqNfVd60fH0MRL1NyFyddmZea/F8FjleyT67Wjm7maKaqZD++6QZA9fzUfwlMx110A2AmFABwKw+B8a2i0h3GIAF2vi7GI65L0cn5+jj9/5ou+5M5nwWmqd6bD3GP0j7Jf05Vxz2n/mnJKroBLF0Xp/6ZthLjFDOgAIBbWEUFFZcjAQLn20QXgDEYj7iWEgvTMSh+epmTObSiZN8JwPzLNZWMp967q8Bxnk7P6sxDi0p0A1iq+qkSawtaULIfo6wtaJYCAG7BoMkldbFpAmOQCDtfFydxuA7vVufr4/T/h0qczKFNd7GxTHvqXH4XOE6JOZp5WGU/Z38a5q7k3adKoCV38UkAGqUAgGuri9oSuKxaBa8CHs6ziS4AY5CY5dJKFL6N4evw3FM7YZuxtKqLIgDaUcfcu8Bx6unZOkeXwDyU7O9pa+f56rJ/L+sCbSpRrESDFABwTSUWtVxHTf6rhIfz6QJwvi4WuVyWjbLzbXbxU3hS7ynthJmDkn1C4fPAZZ0zXpbs28vCMephh3p61hzNHN1l/w5awpxo+c9clOi+Q2MUAHBNNqi5pvqCWQKcY7OLH8K5zH9cSonT/2P4IlQ1mVA35+4C81Hv63XMxVzW0GTs07grmcshJZIOLEPtiCJZPA91bqsFblr+Mze1GM/agiYoAOBaanuUVeB6nl40gfPchXN10QWAy7DoPN96F30o2ScWusA83WW/WQdT4hOJHKPup2k7zJKU7N9LV6FVJftxaxWYp7vs8w6KOJk0BQBcy4+B6+tiIxvO1e/i+3AuiVrGVmJDZQw+dbJ/V/ItYZagnpz1eQumYhWnuTmsfsLEaWiW6OlQj3V0exQtsRSrmKOZOAUAXMMqBkJux2IBzne3i1/CObooSGJc5rfzreP0/9M3OSVEWQqthbmEU8fQEvM4h9V7ZB1zNMt2Fx18WqJoiaV5KngpgQlSAMCllVjYcltdnKyAc9Xkvy4A5zMfMpYSp//HsPTT/3VM8k1OlshGHWM7NUGr9T+H1HvkLkBV9/RqtyrFMNNWC4vXcZ1YnhJrCyZKAQCXViv/SuC26uLZCyicpyaJdAE4TxddABiHYpLzrbPs0/8SCyxdiY06bmMVRXy8rbY9vwvwXC3e88mq6VJYzNKVWFswQQoAuKQSixamoSb/dQGA8+gCMA6JW85VInEwhiWf/pdYgL0SG3WM49hi8/rf8y7Ia56+eb4K8JIS8/YUKSyGvRJjFBOjAIBLsrBlSrRZhPPpAnC+LroAcB7vV+eryf8+yySxAO8rsVHH+Y4tAKjtkUvgY/UeqmPRKsBbSszbU/JtJP/huRJjFBOiAIBL6WLhwvTcBziHLgDjkMBlqBLvV+fqs2//v0SS//CyEht1XF6JJAkve0r+fxrgGCXm7SmoawvdVuFjJcYoJkIBAJci0coUdXHyFs51l2V/N3sMXYxFDKN45Hy1iKnP8kj+w9tK9ht1x57khlOZw3mJ5D8MUyLBdkvWFvC2EmMUE6AAgEtYxeDGdClOgfMt+dvZY7EJzKlKbLKcq8/+UyZLY4MOjlOiCIBhyhH/+SrwPsl/OE+JBNst1Lb/qwCHlFhbcGMKABhbiaQG01aiRRWca72LTThHF10AOI33q/MtsXhJ8h9OUxNxPwbG9W3gY3WskfyH85QoArimuia1pwrHK1EEwA0pAGBsX8ZLF9NXX1hNvHAeXQDOJ6HLsUokcc/VZ1+8tCR1jFkFOFUXCVvG0+3is8D7aoFeF2AMJYoArqGuLe4CnKoW+1lbcBMKABhTiSpA2lCT/xJvcJ5NdAE4VxcbfxzHnHW+pRUt2aCD89R1rbGXY71VXP5l4H0K9GB8JU7ZXpK1BZxnFUUA3IACAMZkg4SW1E29EuAcugCcz9zJISU2ic/VZ1mn/23QwTjudvF54LBfv/L3JU7/8z5zNFxOic/4XEJ9F7oLcK6v4vAsV6YAgLGsYnOa9twHOMcmugCcq4suALxNkcj5llSsVBNNdwHG8l18o5vhzOE8V7tB3AW4pC72+sZU34HWAcZSuwB0gStRAMBYLGxpUReTLpxLF4DzmUN5TYkCy3NtspxNqxIbnjC22kq4niYsgdOUmMN5pybRvgtwDatYY4+hREcFuARrC65GAQBjWMWgRbtslMN5NtEF4FxdFCPxMhtX51tKkVKJ757CpZRYM/C2/3rh78zhPCmRRINru4vP+Jyjrinq2qIEGNtTgbG1OxenAIBzlVjY0rYSbfjgXF+Ec5lL+VCJk4PnWmc5BUpOEcBlddm37ISX/PqFv+sCkmhwS7XrRglD1MLHEuBSamcg+4BcnAIAzlUHqhJoW/0Wn6o7GK7fxQ/hHF1sFPM+i8HzLeX0f01K+kY5XN5Xu/gscNgq9knYk0SD23kqwLHfd5q6DvW+A5f31WPAxSgA4BwlTqYxD3UxINEC56kvrb+EcxiHeFLiHetc6+yLk+auFjHaNIDrkczjJR8ml7SdppJEg9sr8RmfU6yiSypcU31XUMzPxSgA4BxaIDIndfO8CzBUTf5/H87RxTjEnmKQ8y3h9H/JvrUpcD010SuRwIeeFwCUeJ9jfw/cBZiCWoijYPawEnv9cG31HfLH6FTChfwqMMwqKpmZn5pw2QQYqiaifFLjPMYhSpz+P9c68z/9X7JvaUo7fvkgqv6D/84neTeHPv25hKnpst8g/zrwMUV8lCgUgqmp8/ZmFz+H1/hcQlusLeajZP/+aG3B6BQAMJRFLXPUPcYmwBBPXQDMEcN1MQ4tnefnfEs4/V/vkxKmpM6BffYby39//Oefn/39OZ4262rUFpG/e/ZnbqOeJPxLzNd8rAtL51MhME31lO3v49OFL6kFEiVMyfO1xT+e/XnstUWNPzz+XRduxdqCi/iPwOnqhuNdYJ76WBDAOeqiYRuV4+fY7OKPYYlK9s8Pw9Xk/13mrXZa+S7cWt2A++vjz01u13Wiy74Q4A+Pfzb/Xk8f64Y6Z5VQ74H/yv4Z1J3l+vpd/DbTYL+sDX3eFer9K+8n1J6fpn3J81O09edvHn9+GnNwC+o7tFO271tF15IpmMraoo5lXawtbqHOPb+NnMR6F5+HD9V94k3gwkr2i/x/CzHjuAtwjru09cxPMbqwRPdp6z6dWmwz/0RU2cU/09Z1mUvU33vdNP4s094I67L//7lNW7/fVmPp38rdpq3rdcmo7hv5/zq32GYaStr6vS3l3qinvu+yT3KWXHYOfzpB+9Xj/+7fkvxbTC668KTEXH6rqGuL++zHJmsL8RQ/hnXaumbXii5wBfdp68EQYkjUlzAVjjDcUxeAVp75KcZDWJqStu7RKcZd5m+btq5J6/GU9O/SpnqCZx33zaWjy3Jt09a1umT4fdwutrk965/p3At13l5lOkWhJfviwXXcI1O6T+z57dVkYyvXbQ5hbSGOic+ybOu0db2uFV3gwkraeiiEOCfuA5xjlbae+SlGF5bkPm3dn1OLbebvm7R1TVqOh8xvDF5l/+/Vwu+/tdhmuYmE+u/ewjW6RnzW2P/fOcU2t1e7gbTy+5pbPGR/4r6kDV0k0KYQS+/gU9XPirV0zVqOh1hbiONj6QcT12nrel0rusCFPaSth0KIc6MLcI5t2nrmpxYPYSlK2ro3pxirzFtJW9ejxagbLXeZ/2ZLF5sql4ilJhK2aes6XTIeGvr/OrfY5ra6tPX7mkM8ZJ/0b33O7mJOvmV0Wa4SnxW7dCxlbVFiHLtELLlIaZ22rtW1ogtc0CptPRBCjBEPAc7Rpa1nforRhSW4T1v35dRim/mr/44tXIsWYymbcx8qsbkydnya5dmmrWt0yZBIuV1sczta/18vWm+d/ZYSXQFuEdss10PaulYthbWFGCu6LNM6bV0n9wOzsE1bD4QQY8UqwDke0tYzP7V4CHNX0tY9OcVYZd6+SVvXo5VY6ubch7pY640VD1mebdq6RmKesc3tfJM2f2ctxZLm65L9v+s2bV2jluMuy7NKW9eolbC22Cu7+FvaunZTjW2WeT+t09Z1ulZ0gQv5Jm09DEKMGdt4eYNzdGnrmZ9idGHO7tPW/Ti12GbeStq6Hq1EPUHo/e59tZXyNm1dxynGV1mWbdq6PmKesc1tlLT5+2ollpxMK9n/u7d0vVq+z5Z0j5WYuy8R94+/W95Zxb02RtxledZp6xpdK7rABZRoZSfEXYBzPKStZ35q8RDmqqSte3GKscq83aet6zH1qKdRuvCaEhsu58bSEgnbtHV9xDxjm9vYpt3f2dRDod5eiXn5GnGf5aj/ri1ck1ZiG2uLt5QYw86Nf2Z5xSXrtHWNrhVdBviPwNvuowU6/LKL3++iDzBEF0nsc/1xF5swN96zzvNz9vPzXK2yrA3JS/tzFHUea7WLbyP5MlRNXH2dZdjGibc5++Ux+sf417N/fv6fP+lzO32uaxVz9CVssh8/fw7PrbLvzlrCpSxhvf1p9sWwjOP77NcWv4RDVjGGneOnXfwpy7HexefhQ/aFGV1JW1UwQlwy7gOc4yFtPfNTi4cwNyVt3YNTjC7ztk1b12Oqsc1+w5PTlLgHz4mSZdimresiPo56sqwmhO6z/4TFZ9mPmQqAXlfi3r/Efbi0T6icqj6TtcCspevaUjxk/rZp65pMNbZx6n+Ikv37RivXeWrRZTnWaevauAdo1jZtPQRCXDq6AEOVtPW8G4O4tPu0df9NLe4zb9+kresx1VhHEutckg3D4iHLsE1b10Xs7836XK/iJN5Q92nrmrdwT5ZwrFWMvZeKLvO1SlvXYqrxEGuLc92lrWs+pXtvKdZp69pcK7rAiFZp6wEQ4hrxEOAc67T1zBuDuJR6sq6V+26qUTJfJW1di6mGk4TjuUtb134q0WX+tmnrmiwx6mm7mvDvImkxhpK2rv/Uw1w9TImTtJeIh8xTifl6jLgLY6ljf+380tL1n0J8lmVYp63rcq3oAiPapq0HQIhrxSrAUCVe8s+NLszBQ9q676YW95m3+u/XwnWYatR5pgtj62IOPzUeMn/btHVNlnTv1c11Cf/x/Zi27oWpxjbm6jHcpa3r3kJ0mZ/7tHUNphb1/XcVxlYPRWzT1r1w69hmGdZp67pcK7rASL5JWze/ENeM+uJnIwWGu0tbz/zU4iG0rktb99wUo2S+Stq6FlOLbbQRvqQSG3WnRpd526at6zHn2Gb/nm2tejmrtHVPTPleLWEstdinlWvfQjxkXkra+v1PLbbZJ6q5jBLvkqfGEjrnrNPWNblWdIERlLR14wtxi7gLMFTdlHSC8LzoQsse0tb9NrW4z7w9pK3rMaXYRkLhGkps1J16X85Z/fdr4TrMOR7i3fBatmnr3pjq/apIZXxO0o4bXebjPm397qcU21hbXEOJ8euUWMLBxHXauibXii4D/Gfgfd8EOOTLeAmEoX7ZxffhHObqdnWxSX+uP2e+6jf9ujBEv4s/Pv7ksvr4XZ+iRNtYLmOT/bP4x8c/c1mr2AM41w/Z36+/hLH9HHPzmOay3i7xDjJUH8/UtfTZ/65/Dseoyf8ldAEALqBWjE690kWIqcRDgKF0ATg/utCih7R1n00t7jNv27R1PaYS20jK3EKJe/aUe3Su6r9bC9dgTvEQ74G3sE1b98nU4i5cQ4l7dayYQ9v3+7T1O59KbGNtcQt1n7D+7lu4R24dc+8CsE5b1+Na0WUAHQB47scAx+pi4wWG0gXgfN+E1nQxb5yjz7xP/69io2mIPk7n3Eofv/tjlRj/OV99f/46Tvzfwirm6HPU97e7cA39Ln4fJ2nHsErbagHDKpyqj/fbW6nvOX73x9EFADjZKm1VvAgxhXgIMJTq3vOjCy15SFv319TiLvO2TVvXYwqxjYTMFNQNZl19DsdD5mmbtq5Dq1EPa/hu+u1s09b9MqX4LtxCHS/+lrbulalF6ydsH9LW73sq17yEWyuxtjgmtpmvddq6FteKLgPoAEBV4iQhDNFFxR0MVat753ya9xrM3e3oomDjHH3mvYG8is2mU9U55E9xQmQK6inDr8MhXcwDnO7p1P+f4rvpt7KKOXqon2K/5FacpD1fTf6v0qYS7xxDfBHPzBT02b/38LYSXT6AI9UEwtQrXISYasz9uztwadu09cxPLbrQgoe0dV9NLVaZt4e0dT2mEBIK01OLdFq6h24RD5mfbdq6Bi3FNhLPU1CvQwv3yxTvX/skt1fiHj4nHtKm+7T1e55C3IWpqeu9lu6hW8RD5mmdtq7DtaILDFDS1o0uxBTjLsBQXdp63qcWD2HqurR1T00ttpm3Lm1djynEXZiqh7R1L90iuszLNm39/luJ2rpb8vT2VmnrvplKbKN4ZUpKtNM+J7q0paSt3+8UwqdKpqt+Aqmle+kW0WV+1mnrGkz6WvsEAN8EOFd9jkqAITaPwTBdVIFOnXet88z9UyGfh1NsogBgymrrVG3K3/ZZ4G0/7OL38SxNwZdhCK3np6XPfn5mmNbmbWvP0/TRWWzKfJbhMM888KoubVW5CDHleAgwVJe2nnfjD8fq0ta9NLXYZt5K2roeU7gfSpg67Trfjrl9Pmybtn7/Uw+nEKejS1v3zlRCIm267tLWvTSVaGneLmnrdzuFa1vC1HVp6766Rcyta9Q6bf3+rxVdBtABYNnuA4yli1O4MNQmugCco4vxZ6q+CeeY++l/98dp6v3Qh6mrCcxNeE3doJMg4yX15L97Yzo+D6daRxHLlN3F/DxEnbc/TRt0LTmNtUUbNrv4PrzF+yPwkVXaqnARooXYBhiqS1vP+9TiIUxNl7buoanFNvNW0tb1uHXch5aU+N7wW/G3zMc2bf3upxo/hikpaev+mUJsM78TiHNUYn4eEvdpwzZt/V5dU45V5xdj1+vxz8zLOm39/q8VXQbQAWCZSpw4gksoUXUHQ23iRMI5uugCMDXetc4z92+VduFYfebfDWJu+jip85Z6krAL7PXxfe6p8Q53uj/u4pcwdX2MN0N8lukXuKyinf2x+lhbtKbOL67Z6+r41AVeoABgmWpLoBLgEupmgcp3GObrcA6bldPRxQLsHJvMvyDI83o87TnbVNtA9+E1nwf2z4jE6fR04RTm6bb89Bgcr4XPAHivOJ4xq00+M/Y2+wvA/yhpq7WFEC3GtwGGWqet531q0YUpeEhb983UomTeurR1PW4Z96Fl9cRcK/fataO26pxD0fA2bf3epxatfFd6SVZp6x66dWxDi0q00z417jNdJW39Lm8Z29CyLm3db9eOuRxIXKet3/u1ossAOgAszzcBLq1+BqAEGOIunMM8f3tdFGKcY535n8j4PBxLq8e21ROGm/CSukG3CktWx7efw9SYo09jnm5TH5/qOdVnmS57AMf7Y2jZJtYWb/FZYj6iAGBZVrHJANdyH2CIPjaSztFF8vnWbMCcZ+7Pf4n38WPVjek+tM6c/rr/DkvVR9HrFJV4jz7F+jFo0128Z51iyt/Y7sIx1nHPz4G1xev+EPiAAoBlsSEN19PFSzgMVb/t5Vuow5nvb6eLsf8c68x/U6YLx+iznwto3yZO6rymy3xadXIaJxCnaRVOIQnTvi/CKbpMzyo6kB7LmDUPm1hbvKaL/QY+oABgOVbxQgDXpgsADFOT/1oSDtfFS/+tKL44zxI2ZbQWPs4PcUJnTszpr1uFpalzXR+myBx9PPfxPGwikXaKKZ6u1U3oOOsYs+ZEMcfrugCLU3ax3cW/hRBXj7sAQ9QTcf9MW8/7lOIhXFuXtu6RqcV95q+krWtyq9iGOTKnvxwPads2bf2+bx3bMFVd2rqXbn0flzAXXdq6/24dU+rcU9LW7+6WUcLcPKSte/BasU371mnrd36t6DKADgDL8E1MdHArX0ZrTxhCF4DzdFH5e23fhKH6LKOK/7NwDGP/PLmuL+tirbAkTqxN1+fhWLr0zMsmugCc4tNMRxeOsY4xa47+El5SYmzgGQUA81eirSDcUt3QkxSCYer3n38JQxl7rqeLRdY5lrKRLLlwWL+Ln8IcmdNftwpL0GefhGCaunCMPu7jOfohHGtKBb3WFsdRfDdP61hbvKYLPFIAMH/fBri1r2LyhSHqy7zF2nBdjD3XothiuD7L2EgumdaJoanaxAmduapz+ia8xPd7l8E77XR10TXzWE7/z9M6EmnH+l2mocRa/xjrGLPmqo5ZipdepjiI/0MBwLytotUoTIXkEAxTTwz2Yaj7cGldbL6coyZE+syfd/LjSJDNm88AvKyLzwDMXR+npqfMRvnx1mGuzNHHmUpBbxeOYW0xbzrHvaxEYSOPFADMm4QjTEcXL+gwlEXbcCVaC1+a963h+ixnI1ly4bB1FHzN3SZOGL5GkdC8bcKUdeEY65in5+y7cIxasDeFIgBri8M2MWbN3SbesV5jbcH/UAAwX3UzugSYknoS1+keON06XurPIUF9OV1sGp9jKcU9Jdr/H0MLx2VwnV/2hzBnilmnq87PJRzDfTxvPtVzvFu/19d9xS4c4p1zGf4aXuITY/wPBQDzVOK0H0xR2cVXAYaw4TRcifeCS1FcMVyf5Zz+78IhfWw6L4VWnS9zSme+NnECcco8e8fZxH28BBKmx7l1AUAXDunjkyVLsQ4vqeOUQ4goAJgpp/9hur6MCRiG2ERy6BwS1eNbxebLOZZU1KNF52F/CUuxic8AvMRpvvmSUJs2J+SO4z5ehlqkZ44+7NZde4xbh23CUvRxvV8ylc+VcGMKAOanxCk/mLI6AX8bYAhdAIYr8X4wNkUVw/VZVqV+Fw7x3dllkUh6mU26edqEqSrx3B2jjxOWS1GT/z+HQ0puqwuHeNdcFp8BeJkuRygAmKH7AFO3ihd2GGITm6jnkLAezyq6LZ3j6yxHFw6pG819WBKfAXiZE33zs4nxbcq6cIxNWBJdmQ6rB3tKbuPTWIce0se4tTSb8JJbdythAhQAzMsqFjDQCok4GEYXgOFKdAEYizF8uE2WlfxTdX+YEzrLU4s+tBj+mG91zo9E2rTZGD/O92FJ1uEYt+oe0oVDNmFpNrG2eIm1BQoAZsZmNLSji0QcDLGJZNE5vCucbxWnLs7xRZZFcuEwp8GXR4vhl/lW5/y4z6etC4f0cR8vjTn6OCW3oVvQYfaLlknR5cscSFg4BQDzUTf0S4CW1OdWJR6c7i4MVaL46FyKKIZbZ1mtkCXzDtP+f7ls0r3MmDEfNYm2CVOljfZxnP5fJt/TPux3uY0uvKWPuXepNuEl1hYLpwBgHsouvgrQmhLPLgzRx2bUOSSwh1vFZvE5lvYJjy4cYoN5uZwufJmTffPhHp82G+LH2YQl2oRD/ivX14VDNmGpNuElOhIunAKAeXCKGNr1ZSSTYIi7+MbXUCW6AAyleGK4dZZ30rsLh2j/v1ybmMdfIik5Hwqcpk2xzWF9FLIs1SYccosOAN4RDtNharn66Cz3kjpuyBsu2K9C60ps4kPL6iRcE0pL+yYynKsmDWoXAAnZYervbR1OsYqCrXMs7fR/davWoK3QHpuaWOrCc0+fDpF0a98mTJlE2mGbsFT1Ha3PMtY+/ePPXz6I6l8v/N2H/3xNCpcO24Qlq8WXJXyovvNswiIpAGjfQ4DWrXbxQ0zGcKrvsu+ioZr1dCX7sWcdjqXYZLh1lleNX8elLrxFgpO/x3PyEgUA8+AaTleJBMExfghLNtVEWv/Cn59+PiXsn//dLwf+riUKl962ie5SS1ffvT4PH1IAsGAKANq2ikULzEVNLG0CnEIXgPPoAnC8VbxznWOJp/9t0B2mRSeb7Av5eF/9Vuc6tKzV5NJSmKOPswlLNlYi7aUEfP/sP//HC3/34X/PmKqN9zH+HpZO8eXLuuwPULFACgDaJuEB89HFaVwYQheA4UqMO8fyzjVcTf73WR7JhcNs0OAeeJnxo33u7WnrwiGbsHR1HNs8/vl5Av4fL/xd/8HPD//M+bwbHPZTWDrvXy/zacIFUwDQrroRXQLMybfZv7A6LQLHq89LTTB+G4bQBeCwVbxzDdVnuffXH8Jb6ti9CUvXZ38vKOJ739MpP2uCdjmFOG02wg/TpYdNvKtNiQKAwyR/qe/OfezffKjE2mKx/jO0qOziLsDc1Mn4qwCnql0A+jBEyT7Bzeuc/h+ufqKjzzKV8BYbdDzZhJeU0LI+TJlE2mHmaZgWhUtvq2OW5CbVX8NLurBICgDaZCMa5qu2Mi8BTrXEb4yPxXvF61YxJg/VZ7nfmasFfZILb3M6lif/CC8xhrStD1PlO9qH6dID09OFt3if5IkCtpeVsEgKANpTFyurAHNVNyPuA5xqHRtVQ5V4t3iN4ojhllyUI3F32CawZ5PuZcaRtvVhqko4xLgM0+Kd4LBNYK8PL9FFZKEUALTnxwBz10V1LwyhC8BwEt0fW8Um8VB99kU5S2WT7rA+sCfR9DKbdG3rw1SZow/TpQempYRDvE/yxL3wMu8/C6UAoC2rmPRhKSTj4HSbqPweqkQXgA8Zh4dbejFOCW+prYVtzPCkDy+xSdc23yGeLsU1h20CTIl3gsOsLXjSh5eUsEgKANpRYiMalqTbxVcBTqULwHDeM95ZxQJpqD7LPv1fSS68zQYdz/0SydKXfBLfKW9VH6ashEP6AFNibfG2urbwLslzffhQXVeUsDgKANrxeTyksDQ1GWfjD06ziVMrQ5XoAvBEMcRwinCc0jnkX4H39eElJbRIEmLazNFv06UHpqeEt5h3+ZB57GXegRZIAUAbyi7uAixNTf7rAgCnk4AcTuLb6f9zbOL0v1O7h20C7/O96ZfZpGuTRMR0eaYOkzSB6TF2vc17JB/6R3hJCYujAKANNuNhuerzXwKcYrOLn8IQJboAeO8aTvGNDbpj9IH3SZi+zHgC4yrhEIk0mBbvAof1gff14SU+J7JAvwpT18VGPCzd/S7+GOAUX+/iszBETYCvs0yr2Bweah0nu6sSDqljzJeBd0p4ya9Di/owVSUc0geYEp3FDqufTf7vwDslvKSExVEAMH33AZaue4xNgGP1u/g+kkxDlOwT4essj9P/wzn9v1fCIU4ywXE8KzCuEg7xCQCYFu8Ch/kdwXFKWByfAJi2VTyYwJ5iIDjdXbQVHmqJifBVvHcNtY4TY0+01QPGUgKMyRx9mAIAmJYSgHGUsDgKAKarxCk04J2yi68CnKIm/78PQ5Qsb8zx3jWc0//vaNMJjOWTGFNgTJ6nt/0SxdMwNb8JwHhKWBQFANNVWxaXALxTk1M2LeA038VG1lBLGnNW8d411DpO/z9XAjAe7/4wHm2i39YHmJoSgPF4F1oYBQDTVOKkL/CxugHohCqcRheA4eqYs5T3EWPrcE7/v68EYDw26WAcimkO+0eAqSkBGI/3oYVRADBNNqGB19RkXAlwCl0Ahqsdiea+QFjFuDpUTf734UkJwLhs0sE4SjikDzA13gOAMZWwKAoApmf1GACvuQ9wCl0AhltCFwCFl8P02bf/550SgHGVAGOQRDtMwTRMSwnAuH4TFkUBwPTYhAYO6R4DOF7tAtCHIebcBWAVGytD/RDPFMCl2aSDcZRwyM8BpqQEYFz/FRZFAcC0rGJyB46jCwCcpp5o8a3yYebcBUDh5TD9Lu7Ch0oAxmWTDsZRwiE6AMC06FwCjE1x8cIoAJiOEpvQwPFKJF/gVOs42TLUHLsArGIzeCjFNC8rARiXTToYh0TaYQoAYFqMW8DYjCsLowBgOmryvwTgeHNuyw2X8nUYYo5dABReDtNnX0zDx8zJwNiMKzAOz9JhfYApKQEYVwmLogBgGkr2p9AATlE3MSSw4DSbx+B0cyo6WsXCZyin/18nuQCMrQQYg24ah+kAAADzZ99iQRQATMO3ARimnsjtApxCAnOYOXUBUDw1TB+n/98iuQBcgk064NIk/2F6SgDGZ22xIAoAbm+1i88CMJxEFpxmE10AhppDF4BVbKYMpXgG4Pps0sH5SniLAgCYnl8HYHzWFguiAOD2JO6Ac3XRBQBOJZE5zBy6AHj3GmYTp/8PsZAGAFrUB5gaawvgEowtC6IA4LbqBnQJwPnuYwKHU2yiC8BQLXcBWMW711CKZg4zDwOXUAKcqwQAgBIWQwHA7ZTsN6EBxlAyn29zw7V8EYZouQuA0//DrKNgBuBWFBcBl/avAFNTAgBnUABwO07/A2Obw7e54Zr6XfwQhmhxvFnFu9dQTv8fpwRgfN7vgUv7ZwCAJbC2WBAFALdR4vQ/ML46gX8b4BR3u/glnKrFLgBO/w+zju/CAgDtKgEAoFIAsCAKAG7jPgCXsdpFF+BY/S6+D0O01AVgFZu/Qzn9D3BbJQCX5RMAMD2SdACcRQHA9a0iOQdcllOucJrvogvAEC11ATAuDrOO0/8AAHNnLQTTowAAuITfhMVQAHB9NqCBS+viMyNwirrhpQvAMC10AVjF6cmhnP4/XgkAAAAATIACgOuqyf8SgMur441qYTieLgDDtNAFQPHlMLUopg8At+adHgAAgJMoALieknba5ALtKzHmwCl0ARhuyl0AVlF8OUSffVEMALf36wAAAMAJFABcj9O4wLXVpFwJcKya8OzDqabcBcDp/2F+iGcBAJiHEgAAqhIWQwHAdZT4HjdwfTUpJ/kFx6tdAHzzfJgpdgFYxcJmiD5O/wMAAABAsxQAXMdDAG5jtYsuwLHWcfJ5iCl2AVAANUwtgvklAADz4L0GAIDFUQBweas4fQbcliQYnOaLMMSUugCs4v1riD77IhgAgLlQAAAAwOIoALg8iTfg1rr4DAmcYvMYnGZKXQC8fw3jExgAAAAA0DgFAJdVN59LAG7v20zv+9wwZRKhw0yhC8Aq3r+G6OP0/zmcLgQAAABgEhQAXE7ZxV0ApmGK3+eGKdtEF4AhpjDWOP0/jKKX8ygAAABa5bAAAMDMKAC4HJvPwNTUk7klwLEkRIe5ZReAVYxzQ/Rx+h8AYKl+HWBq+gDAGRQAXMan8b1tYHpqQu4+wLE20QVgiFt2AVCAOcwXAQCYJ116AABYHAUAl/FjAKapewzgOF+HIW7RBWAVp/+H2EShy1gkGABgeszPAAAsjgKA8a1i8xmYNidk4Xg/7+KHcKpbdAEwtg3j9P94JBgAgBb9V4CpsbYA4CwKAMZVYvMZmL4ut2vPDS26i8X3ENfsArCKAswh1vFtSQBg/rzLv+3XAabGuAXAWRQAjOvz2HwG2lCLla7dnhta1e/i+3Cqa3YBUIA5zJ/DmGzSAcA0maPfVgJMjXELgLMoABhPyf6EIEALbtGeG1r2XSzAh7hGF4BVbFoOsY7T/2MzRgDANJmjgdb8KwBwBgUA43HyDGhNHbdKgGPUTUNdAE53jWIj72DDOP0/vn8EAJgiBQBv0x0QAGBmFACMo8v+9BlAa+4DHEsXgGEu2QVgFYVMQ6zj9D8AsByK9N6mAACmpw8AnEEBwDgk0IBWdY8BHKYLwDCX7ALg9P/p+jj9fyl9AADaVAJMicMHAJxFAcD5VvGSDLRNERMcTxeAYS7RBWAV72BD/BCJ6ksxNgDANPXhEF0AYFqsLQA4iwKA85Q4eQa0r+Ty3+iGuaiLcKenT3eJLgDewU7XZ9/+n8uwSQcA02SOPqwEmJI+AHCGX4Vz1NNsJQDtq4m0dWyMwDFqFwDvAKerv7OxOiis4vc/RC1e6cOl9OGQn3fxlwCn+DnAuaxzD9MBAKalD4f02Xe4A47Xh8VQADBciROzwHzUxX4tAvg6wDHqs/JjOMVTF4C7nM/p/9P1cfr/0vpwSE3A3AUArqsPh5QAU6Jw6TBrC4A3+ATAcDaegbmpibkS4Bg/7WITTlW7AJx7umgVY9UQPl1xeTbpDnO6EIBb6MMhvwkwJdYWh1lbALxBAcAwq8cAmJv7AMeSUD3dUxeAcyjCPF0fp/+v4ZfYqDvEJh0At2B+PuzTAFPTh7eUAPAqBQDD2HgG5qp7DOCwTXQBGOKcLgCrWOQPoVjleiQY3lYCANdX5+c+vEWRHkxPHw4xdgG8QgHA6VaxcQXMmy4AcDyJ1dOd0wVAEebp+jj9f00/h0Ns0gFwC4r03lZijoap+Uc4xLgF8AoFAKcpsfEMzF/ZxV2AY2yiC8AQQ7oArKIIc4gvwjXZpDvMJh0At/D3cIg5GqalD4f4fAnAKxQAnKYm/0sA5u+cFt2wNLoAnG5IFwBFmKfbRIHKtfXhEJt0ANyCDgCHdQGmpA+H2LsEeIUCgOOV7E+eASxBfYGWbIPjbHbxQzjVKYVGqyjCHMLp/+vrwyElAHB9PtNzWAkwJcatw0oAeJECgON9G4BlqadzuwDHuAunOqULgIKk060jGX0LNukOKwGA6zNHH/abAFPSh0OMWwCvUABwnNUuPgvA8ki6wXH6XXwfTnVMF4BVJAyH8GmK2+jDISUAcH0+AXBYF2BKfomx6xCfFwN4hQKA40iAAUvVxSYAHOsuFuenOqYLgPew060jEX1LfXjL7wIA19fHu/ohJb6nDVPTh7eUAISXKAA4rG46lwAs131sAsAx6oaiLgCne6sLwCrew4Zw+v+2tBh+m3cKAG6lD4eUAFPy9/CWT2J9AfAiBQBvK9lvPAMsWcnx3+mGpfsuThad6q0uAE7/n24dm9u39o/wlvrMlwDA9UmkHdYFmBLFxYeVAPARBQBvc/ofYO+Y73QDugAM9dIYs4r3sFPV+8/p/9uzSXeYb3UCcAvm6MN8qgemxbh1WBcAPvKr8JoSp/8BntTE3Le7+CLAIbULgKKZ0zx1Abh79ndO/5+uFp/04dY24ZBuFz8FAK5LIu2wLrBXCzYf8q7DXf/sP/vl2d8/737Vn/hnDjNuHVYCwEcUALzuPgA8t9rFD5HYgEOeTmF/G05RiyaePqGwikX8qfrs2/9ze33297EioNeVAMD1SaQdVrJ/h/FZM0re/756yfj6x5/PCwo+/Pt/vfDf6Z/9d1/7+7mo/259vD+/5Q8B4CMKAF62iopXgJfUE7mbAIc8dQEo4VjPuwA4/X+6WnTSh6moCYYuvMYmHQC3IJF2nM+isJTrPCcll9Mf+PPz4oIP//6XA3++trq2KOE1JQB8RAHAy2w6A7ysy75Iah3gkJqQ1VHoNLVoom6qlHCKPsblqfl7FAC8pRb8lChaAeD6/hrvmod8Gmi/YLO88ucxPBUD1C6Zd7m8Om59Fl5T1xZ13NLlBeCZ/wwfqsn/EgBeU8dJbY3hsHV0zDhVHVt8OuF0fw5TY/PpsC4AcH3m6MP+O2B//C1PxazX6ghg3DqsCwDvUQDwvpJ961kAXldirIRjScxyaX2c/p+iTTjE6UIAbkEi7bASyV+8qx3jWuOJceuw3wWA9ygAeJ9TrQDH8W1zOM4mEoFcliKTaepzu2+EtqL1trIAtKkm0szRh2k3vmxdOMa1xpL6v9OHtxizAD6gAOCdkv13rQE4rBZLfRPgGBK0XEofp/+nbBPeUk+VKb4G4NpqIs1p2sN8BmDZnP4/zjXHkr+Etzx9lgGARwoA3nkIAKdYRVU4HGMTiUAuQ3HJtP01HOKkDgC38PdwiEK9ZdOp6bBrFxIpXDrM2gLgGQUAe6uoEAMYQhcAOI5ELWPbxOn/qduEQ2wuA3ALP4VDavJfMm25dAA47B+5rk04ROcSgGcUAOxJYAEM08XnU+AYm9hoZFxfh6nzjeHDJBYAuAUnaY8jmbZMNflfwiHXHkf6x+B1OpcAPKMAYJ/8LwFgqG/jBRuOIWHLWNaxcd2KTXhLfX/oAgDXVQv0NuGQLtb6S+T0/3FusR77S3hLHa/cvwCPll4AUHZxFwDOUV+wvwpwSL+L7wPn80mJdvw1HNIFAK7PHH2YzwAsk84Px+lzfYrADzNmATxaegGA1v8A4/gyuqnAMe6iJTjnWUfrx5b49MdhnwcArm8TjmGeXh4J1MPqmv4WyXhri8OMWQCPllwAUNvBrALAGOrJgPsAh9SNAl0AOIfT/23po2DjkBJdAAC4vk0U5h6ji88ALInk/3FudRLf50sO84kxgEdLLgD4MQCMqYuXbDjGd7HZyDDrSCa3yLc6D7PZDMAtmKOP45N/y6H9/3H+ntvx+ZLDdAEAyHILAFbRqhrgEnxaBQ7TBYChnP5vk1adh9mkA+AWNuEYX4alUJR5nE1uZxMOqfexziXA4i2xAKBEggrgUro4HQDH0AWAU9Xkfx9atInn/RCtOgG4BUV6x6nztMTw/K0iaXqsW30CoNrEuvCQeh+vArBwSywAqKdLSgC4lFpkZdEIb9MFgFP02bf/p11aDB+mSBuAa/M97ePpAjB/2v8fp8/tE/DWFoe5n4HFW1oBQNnFXQC4pJr81wUADqtdAPrAYT/EvdK6dTiki0JtAK5PIu04XXTrmbMSXR6Otcnt6V5yWBdjFrBwv8qyOFUCcB11vF1HwgreUk8c1bbu94HX9VHAOge1TWh95nXIedsq7velqHNffSb+9fizRv/4n/XP/g7g0ta7+DYco67zN2GOdHg43l9ze5tYWxyj3tebsARP3WitLeCZJRUAdPHtF4Brqhu7fwzwlnX2i9JPAy/7c5iDutlQTxh+Ht5Sx8PaHcXmzLytcvza/LUNvH/l4828D/8Z4BhPnwHowiHdY2zC3Dj9f7xNpqF2iVO48bZ6X9eksHfDeSs5voj8rbWFwgFmZ0kFAE7XAVxXF5sDcIyvd/EQ+FgfrePnZB0FAIc8fUboLszZKZ35PnmMktP0ebdh9xT/eOM/6wMsWS3S68IxdAGYn1V8hulYP2c67ww/RQHAMawt5u/aa4unf7a2YPL+I8uwigIAgFvod/HbAIfUAoAu8L4vogBgTupGwzZadR5SN0x+Gyct5mqVaa/N+7xcOPDhZp7Nvb06ppXw3Dr7+Zu2mKNPUzv9bcJcGMuPt860xvh/xrh1iLXFvJXsx7Cp6qMo+VTrODjxkkHvXkvoAFByWhUQAOMp2VfbfhfgLbXNexd4p4/k/9zUBb1WnYfpAjBvU1+bl5xOK1FoX30mf4738WPpAjAfq0j+n+KHTMv3kfc4xNpi3qZ+6LfkdC8VHtc/W1uEUy2hA8C32Q/yANyGals4ji4APOf0/zx18cmPY3h3mKdVdOZ77rUNvL+nnfHfqdGPraMDQKu6mKNPUT9jptC/fcbx49U5+r8yLSXTPv08FfXa/T5OV8/NKtYWz81hbVGtowPAS3RfekHZxb+FEELcPGoxFvC2Lm091+Jy8RDm7G9p6368VdyFOSnZb1C3cv/dMlpKqG3T1u/2GnEfWlbbabdyr906tB5v3ypt3XO3jp8yTQ9p6/d4q7gPc7NNW/ege/8467T1+71WdBngPzNv3wSAKaidWEqAt2yimpO9P4c5+0s4Rv1UQglzUdfmJRzDiVq4ne/DsWry375r21y/00y1AMDa4jir6Lg4J9YWx5vap0u4ojkXAKweA4BpuA9wiJaxrKMQZO5qck9r+8NqYsG7wzyUWJsfq36DvA9wK1NN8E1VLfTvQoskz0431fFhHWuLYyl6mYcS3eKO1cf+0qLNuQDAgA4wLV1sDsAhfVTnLp3T//NXN+g24RhdvDvMwUM4ltPHcFu1CGcTTlGL9XwKoC0lkmenqqfsp5pkr/+/vD8cp8u+cIm2WVscT4eQhZtrAcAqqhgBpshJPjjsLir4l2odJz+Xwibd8SQW2uaE4Wk2AW5NMeZpShzCao19mdOtM226lxyvjlfWFu2ytjiNT4st3BwLAEq8eAJMVYlKczikj+TgUtlwXo5NJPqOVWJ916ou3vtOsY4iMJiCTRTjnsqnANrxZVyrU/WZfoJd95Lj+cxYu0qsLU6xibXF4s2xAEAVEMC01QWnalt4m2+EL886FmdL43Mfx5NYaE+JzdVTGRNgOhTjnq6O+SVMWYnk2RCbtEEx+fE+ewzaUfeRtf4/jbUFsysAKNm3/wdguupLm5N88Dbf8VseGzbLU08SKfQ5nk8BtEUi6DR9nNyDKVGMe7oShV9TV5Nn3qVO18q6fJN9JwCO4121Ld/G9TpFn+l/uoQrmFsBwLcBoAVO8sFhNh6Xo24q9WFpFPqcpkRioRW10LMLp1AEBtNijh6mi73ZqZI8G6ZPW0l149bxfAqgHXVtsQqn2AQyrwKAVbRuAWiJLgDwNhuPy9BnX+zBMin0OU1d730Vpqx+6ukunKKOAZsAU+P9bJivYq6emjo3uybDtFagp8PYabooWpq6uv67C6dSXMz/mFMBgEQSQFu6OB0Gh9SNxz7MWf0uWx+WSqHP6eomXRemqIuE2RB1s74PMDV1jvb93GHM1dPxaczNQ9Ux4Ke0xdridLU45vMwRXX80qXhdOtYW/BoLgUANflfAkBrfM8X3lYX8Cp356uPanZ0ARjix1j/TU3doPsxDGGeh+m6C0PVOeHTcEsl5uZztHqa3tridPV3ZryalpL9+GXP+HTWFvwfcygAKPENEIBWlWhFB4eso3p3rizMqJzUOV3dCHqIDaGpKLFBN9Q65niYsj66AAz1NFeXcAslfv/nanWtZm1xujpeKTCejhLj11CbWFvwzBwKAJz+B2hb/R6dDWN42xdhbvrsEz9QOalzuhJFAFNQYoPuHArBYPruwlCKAG6jxO/9XOu0nUSztjhdibXFFJQYv85hbcF7Wi8AKHH6H6B19eX62wBv2TwG82FhxnNO6gxTW3XaqLudp99/CUOs44QOtKCPLgDnKNnPFdprX0eJuXkMrT/z1hbDlFhb3FKJ8escm9g35AOtFwDcB4A5WO2iC/AWCeP56OP0Px9zUmcYRQC3Ifl/PvM6tOMu5uhzlCgCuIYSc/MYNplHEs3aYpg6Tv0tnqNrs7Y4n7UFH2m5AGAVySKAOfkmwFs2Uc07FxZmvMRJneFs1F3X59n/vhVdDLeO0//Qkj7m6HPVOaPOHV+FS/AuNJ65rNXq2uLrMESJZPQ1fRa/73NtYr+QF7RcACBRBDAvXXzWBQ6ROG5fH6f/eV09qdOHIUpsHF1DXYevw7nM59Aep2nHUT//Z093XF9GYd5YNplXEm29i5/DECXWFtdQx68fY/w6l7UFL2q1AKC+KJYAMDd1fPfSB6/bRFVv674IvK4mFizehyvZb9R1YWz1/axuzt2Fc62j0AdapFPPeO4isTaGOjfXgorvwljm+B6uC8BwJfvimlUYm/FrPOvYJ2RGyi7+uYt/CyGEmGXcBXhLSVvPtHgXPwaO85C27u0pxjdhLLWt8DZtXf8pR8l8bNPW7/4acR/mbpu27skpxzaK9oYq2ScmW7nWLcSc12oPaetaTDG+CWMpMZeOGSXzsk5bv/9rRZcBWuwA8E2cDgWYs9r+qQR4Tb+LH0KLnL7gWLoAnO8u+43cEs7x1Fa4hDHUZ7sP0DLdnMZTsk9MfhNO8TQ3fxrGNOe1mnHrfHfxTjwGa4txrWNtwRtaKwAo0XIFYO5qkZcNAHjbXXyDtDXrWJhxvE0U+ozhs+wTC6twqpL9705bzvH08fuEOdhEq92x3WV/GvSz8Jaa8H+amx2OG9c6816r9VFgPIanZ3AVTlVi/BpbH881B7RWAPAQAJZgFa0A4S19fIO0NRZmnOqrKPQZQ8m+Jfd9nDQ51tPJnC6Mqc4DnmmYh3qa1vM8rpJ95x7z9ceeDkmYmy9nCWu1mnjtw7lKrC1OZW1xGXVPsA+8oaUCgFUMqgBLogsAvK0u4G08tmEdCzNOV59vhSPjWcWJnUO67DfnnMwZ30/ZzwXAPPRRjHspq+y7AdT9gBJq4qz+Pu7CpSzl8zx1beGTdONZZb+2+Cq8potT/5fSR2cxZqa+7PxbCCHEomIV4C13aeuZXmqUwHAPaet+byG2cQLluZL9qctWrl+LUTJP27R1Ha4R92EpajJjm7buz9Zim+UWAqzi/rrWPbY0D2nrGrVyH63Ckzo/3qeta9halMzXOm1di2tFlwFa6QDwTWycAizRt1ElCm/RBWD61nH6n/N8EcZWst/8/DHLXmfWd6z6rrWN7y5f0lJOFsLS1Hdwc/RllewLnmt3mvvMf85+avVf5+Ul/PtOwRK7bfmEyfhK9s9sXV90Wa7nY9gqXIrW/8xKSVuVGEIIIcaNuwBvuUtbz/SSYhsbd4zjLm3d+63FQ5a1WVey35z7Z9q6Ti3GNvNW//1auA7XjPuwNLUgt5X7cw5Ri/dWmZcu5uVbxH2Wq7atb+U6tRgPWVYC/Cnxbwy7fGwz/4Ny67R1Ta4VXWbqPm1dCCGEEONGfYEsAV5TX/4ttKYZd4Hx1NNvLd3/LcY2+826uW6qdNH29dpRMm/btHU9rhH3YWl8CuA2sc3+eevSpnrf1CTsQ9r6vc/p/ilZtoe0dc1avc9Wme+91mU/DtuPul6sMn/rtHVNrhVdZujTtHURhBBCXCYeArxllbae6SXENjaVGJe10fWibmLdZx6LbAmG28Vd5m+btq7JNeI+LFGXtu7TucU2+2dvlWm/f9d3OXPyNGIVSiRurxn3mccnt6wtbhffZRnWaeu6XCu6DPAfmbZtbJwCsPfHXWwCvMZ707TUbyuuA+Oqmy3fhmvqs3//+Msufkob6sbcahf/nWV/h/SW+l38NvPn3eNj6/gu/FLVjfkvwxT8/Bh/ffbna6tzccl+Hv5d9om/ubdtbsU6xukn1hbX1+fd2qL+/CXTV8euOoZ9nn0hk7Hs+vpd/D5t3C/nWmd/r/G+QXmRKRcArKJyGoB3NtlPdsDL6oLsxzAFfZaR+OE2HiKpe0ub7Dfsfs60ChO7Xfzh8WcXbqluzNUNuj7zpwDgY+tILC1VTYjUOfrTMEV13u538ffHnzV+efZzqJL9tf/08c+/efyz+2Ca+uz3lfrwpO4hzOFkeqs22Rcr1Z91nJpKgrfLfhxTUDwNdX+pzzKsowDgJbMqACjZvzSXAMA7X2c5LY9gCInBaXD6n0squ/hbnLyYik32m3X/yLtThpfeuCt5d6LwKcngfpiOJb2vKgD42DoKAJasxBzdqv6Dn6/55IOgLdZpH6v3cR23SpiCp/XE33PdtUVdT/wh1hZT9Ocs49NiT9ZRAPCSWRUAfJNl3dQAHKe+9P42y2h5BEN02RcBcDt9nP7n8nT8mLbnJwrrz388/vnpn5//9z58pykv/KynCZ+fLmS61llW8lcBwMfWUQCwdF9FS22You+zfz75WBf7CFM2xtriqWip/vOv8y7pr5hp2jZZXjfcdRQAvGRQAcCvMj0lkv8AvKy+lNYF212Al2weowu38ufA5f2U/Sambw1P01OynmXpsz/9Dyzbd9nvbZqjYTr6SP6/ZZP9O4zipWmytlimPopKOdN/Znq+CQC8rs4TJcBrJKBvp4+WklxP3cTcBJiCetrqj9GlCti7i2+Mw1Q8zdG8rRYv/RRgKv4U7xKcaWoFAN0uVgGAt90HeM0mkoK3ojqba6v3XB/g1uqpuT4Ae4qCYDrM0ceztoBpqOPWz4EzTa0AQEIHgGN00eIc3qILwPVtovCC6+uj8ARurc656wC8r485Gm7NHH0axUtwe/VTf98FRjClAoBVtHQG4HiKxuB1m138EK7JBi+3sonvjsOt1Fa5dwF4WR0jFObCbWxijh6ij7UF3Eo99f9VYCRTKQAo2X/TGQCOVeKlCN5yF65lHa0Sua16QuD7ANfUR/EXcNhdFObCtfUxR59jHcVLcG39Lv4UGNFUCgC+jNP/AJyuFo99EuAlfSQEr8XmCFNQi+J+CnANfbTIBY5X52jf8oXr6LOfo/twjrsoXoJr6WPc4gKmUABQ4gQnAMPU5L8OMvC6u0hOXNo6FmlMRz3pJMEAl9XHBh1wmvo+Xk/19QEuzbM2nlX2n1IALsc7AhczhQIAiRsAzlGLyEqAl9SFhC4Al+X0P1Ni8wAuyzMGDNVH8RBcWv12vWLYcXnvgcuqz5hxi4u4dQHA6jEA4Bz3AV5Tvw2uC8BlrGMzhOnpI8EAl1KfLRt0wFB99hv93s1hfLUw+7swtjpeWVvAZdQOfpvAhdy6AMDpfwDG0D0G8DFdAC6j/l6d/meq+kgwwNh8YgMYQx1HajLNHA3jqeuyu3ApfRQBwNjq2mIduKBbFgCsomUzAOPRBQBepwvA+GpRRR+YLgkGGI8NOmBMdY7+OsAYJP+vo4+1BYyljlvrwIXdqgCgxOl/AMZVYtEHr3FafVx9LNZogyIAOJ/kP3AJ6+zHF2C4H2If6Jr6WFvAuWoB4F3gCm5VAFCT/yUAMK4vd/FJgJfULgB9GEMtpugDbVAEAMNJ/gOXtI4iABiqJv9X4dqsLWC4Oud/F7iSWxQAlJicAbiMmvzXYQZepwvA+fpIBtEeG3Vwmvqs/D7Ge+Dy1lEEAKeS/L+tp7VFH+BYCou5ulsUAHwbALicr3bRBXjJehebcA5FFLRKEQAcpz4j9Vn5OQDXsY4iADjW95H8nwJFAHCcp7XFOnBl1y4AWO3iswDAZekCAK+TwB6uj0UbbbNRB2/rsz/5L/kPXNs6+/FHoR68rq5lvwpT0cfaAt7SZ/+MbAI3cO0CAAkZAK6hiy4A8JpNLD6GUjzBHCgCgJd5NoBbq+NQLQLoA3yorsXuwtT08f4EL+mjqxg3ds0CgJr8LwGA67jfxScBXiKRfbo+Tv8zH31s1MFzP8UzAUxDH+MRfOjrSP5PWR+JTnhOQR+TcK0CgBLf5gHgukq0hoPXbKILwKkUTTA3ffabEj8Flq1+S/hP0XYbmI4+kmlQ1bm5ztHfhanrs19bfB9YtvoM+KQPk3CtAgCn/wG4hS+jCwC8RkL7eJs4/c88PW2qGg9Yonr/1xOFCkaBKeojmcay9dkXwihWbUt9r7K2YKmsLZiUaxQAlDj9D8Bt1OT/twFestnFD+EYXwfm7S426liWPvukghOFwNRJprFEtfuFLhjtust+De0ENEtR73VrCybnGgUA9wGA21ntogvwkrtwyDo2nliGu/hOIcuwiaQC0Ja7+FQJy1G7XtR5ug8tq4lQawuWoK4p6r2+CUzMpQsAVpF0AeD2vgnwkj7aih7ixBVL8nTaqg/MUx3T3eNAi2obdMk05u6pfbZil3nos3/v2gTmqe6nmZuZrEsXAEi4ADAFXXyOBl5zFxssr1nHQo7l6Xfx2yh+YV767Deg7wLQrj77RIMCXuamz/7e1j57fvrs38GsLZiTuodWO/N8FZiwSxYA1OR/CQBMQ52XPgnwobpwsYn4MpsULNndLr6IIhjat4m2nMB81Hf3mnDwfW3mYpP9PO3TPPN2F12YmIdN9mPWT4GJu1QBQInqFwCmpcTcBK+pJy1sIL5vHZsTsI62nbSrzms1QfbHmOOA+fF9bVpnnl6eTfbX+4dAm57GrD7QgEsVADhlCcAUfRndaeAlugB8zOl/2OujbSft2UQrYWD++vhsD22qp/3N08vUZ/+JTl1MaIkxiyZdogCgxHeWAZimWpz2TYCX6ALwTt1E7QM8d5d9kqEPTNfz04R9AJbhLuZo2lELz3WvQBcTWlH3h3ymhCZdogDgIQAwXatddAE+pAvAXp9923PgY32cNGS6NnEyB1iuPuZopq0mz2qBnk8z8qTPftzSDYAp2mR/f94FGjV2AcAqWisDMH26AMDL7qICv36PsA/wlrs4ach01A3jL+LUP0B1F3M001Ln6acTtJvAx566AfwQuD0dxZiNsQsAJFQAaEEXn6uB1yz51FAf1d1wrD77BMMXsTHC7dTONfU+XAeAJ33edQNwqpZb2mSf2L0LvK3Pfp/O2oJbWmc/f+ooxiyMWQBQk/8lANCGb3fxSYAPrbPckxlapsLp1tmfjnBih2va5F0bYcktgJfdxalabqPfxZ/iBC2nW2d/3/g8Ide0yf6+qwUo1hbMxlgFACUq+QBoS03++/YcvGyJifA+TpDCUH32J3bqaYmfA5fT511CYRMADumzn6N/H4lYLu95u/+fAsP02e/X1bWFAiYu6Xm7/01gZsYqAND6H4AWfRnda+Almyxv8eP0P5yvz37DV+tOxiahAHCeWqDn0z1c0jrv2v07QcsY+vgsAJfxtLbQ7p9ZG6MA4NP4jjIAbapdAO4DvGRJCfE+Tv/DmNaRZGAczzfn7iKhAHCudfZjaj3x2AfOt8m71tl9YHzrWFswHmsLFmOMAoAfAwDt6h4DeN8my+kC4PQ/XMY6NusYRuIf4LLqiceatK1jbR843Sb7e0jrbK5lHWsLhlvH2oKFObcAYBWtkwFon0/ZwMuWkBjfxOl/uLR1nAzjOBL/ANfTZz/WKgTgFJtI/HNb6ygE4Dh1LbGO+4WFOqcAoETCBIB56HbxVYAPbTL/TR2n/+E6+th84XUS/wC30+ddIYA5mtdsIvHPtKxjbcHLnq8t3B8s1jkFAJ/H6X8A5qMWtX0S4ENfZL7WsXkFt7DOu82Yn8OS9ZH4B5iKPhJqfOynSPwzbeu8G7c2YckUFcMzQwsASvYPEADMRU3+6wIAH+t38UPmyel/uK31Ln6f/YbyXMcZXrbJ/rrbnAOYpnX2Y7Q5epmekmj/tYs/RVKVNqzz7v3SuLUsm+zHqjpm3cXaAv7H0AIArf8BmKM6v5UAH6rFMXNbQK3jVBNMxWYXqzhxOHdPyYSnoo9NAJi6Td7N0XUM78OcbbKfoyXRaFkfa4slqOPT93nXoeSnAO8ZUgDQZT+AAsAc3Qf40NPCak6c/ofp6ePE4Rxtsj+R83Ta32cfANrTZz+G17G8junm6Pno8+60vwI95qTPx2sLRS3t2+zi6+yv61cxZsGr/iOn28bpSADmzaIXPlY/k7F9/Nm6dfYnAYDpq2POZ7v4PPtidNqw2cVfd/FdbLTOmf2hj63jHYPlKNnPzebo9tS5uSZD64nZTWBZVrv47+zXGLShz37MWkdHh7lbZ/9ewfsG5SpOLQBYxclIAOavz76SFHjfXebxKaj6fPcBWlMi0TBlffYbc5tIJiyFAoCPraMAgGUqMUdPnaQ/vK/EuDVlfawtlmgdBQAvuXgBQNnFQyzuAFiG2k7quwDPzaELQG1veRegdSX7jbr/fvw5h+4kLdpkf9J/HYVVS6QA4GPrKACAEnP0VNTP7vwlEmhwSB2nuuy7Avx3jFu3ssl+bbGJMWup1lEA8JKLFwB8m/03NQBgCWp1/G+jbS186JO0vRj+JZ5rmKMu+w27P+zi03ApdfysJwf/+vjTeLpsJXzIewZ8rIs5+lrq+LPJu+I84xEM02U/bv0uugNckjGLD7W+53gpg9YYxxYAlOwruwFgSWoHgK8DALTk6QRPDcmG89RNhuenB38OAAxXsp+XnxJr5ujzPE+e/RwnZuESrC3G83xtYcyCCzu2AOB+F6sAwPL4VjgAtK1u2tWNui7vNu2cKnhZn/1G3N8j4Q/A5T1PrD0VBJijX9fHPA23Zm1xvD7vxiwJf7iyYwoAVtkXAADAEm2y/84OADAfdaOuPP783bM/L0mfdxtyT3/WdhOAW3uao7u8m6NLlqXOx332CbOnxNnPMU/DVJXsxy5rC2sLmIxjCgBq6/8SAFiuWgCwCQAwZ0+neZ5+/u6Dv2vR8wTCP579uY8NOQDaMcc5uurzLrH/97w/TwPt+7DoeE5ri3/lXXFSH2sLmJxDBQCrOP0PAH32nwIAAJapbtKVZz+f/vybx5+fPPvPruGXZ9E//vzHsz/3sREHwDIcM0c//d219M9+1vhXPp6j+wBL9lQIUDLdtcWHY5a1BTTkrQKAsouHOP0PANWfd3EXAIDDygc/q6eNvGM9bcJ9+Oc+AMBQ5YOflTkamLLywc/KuAW86a0CgHryfxUAoKovxr+NalcAAAAAAGCi/tcrf192sQ4A8OR/P8b/EwAAAAAAgAl6rQCgnv7/vwIAPPd/7+Kv0R4LAAAAAACYoP984e9Wu/gsAMBLvgkAAAAAAMAE/ccLf7fN/hMAAMDL/riLTQAAAAAAACbkww4A9VRjCQDwlvqpnE8CAAAAAAAwIf/r2Z/LLr6LhAYAHFLnyv83ugAAAAAAAAAT8vwTAPU04yoAwDF+2cVvH38CAAAAAADc3FMHgLKLdQCAY/3vXfz/d/GXAAAAAAAATMBTAcCP2RcBAADH+3QXf91FHwAAAAAAgBv7z+zb/ncBAIb4JgAAAAAAABPwq2j/DwDnqp0Afg4AAAAAAMAN/X+38ftza3p3wQAAAABJRU5ErkJggg==;" parent="1" vertex="1">
                    <mxGeometry x="773" y="106" width="166.59" height="33" as="geometry"/>
                </mxCell>
                <mxCell id="mlFDoJzG74F5DoCi1j2A-8" value="" style="shape=image;imageAspect=0;aspect=fixed;verticalLabelPosition=bottom;verticalAlign=top;image=https://neon.tech/brand/neon-logo-light-color.svg;" parent="1" vertex="1">
                    <mxGeometry x="1023" y="100" width="158" height="45" as="geometry"/>
                </mxCell>
                <mxCell id="mlFDoJzG74F5DoCi1j2A-9" value="" style="shape=flexArrow;endArrow=classic;startArrow=classic;html=1;rounded=0;entryX=0;entryY=0.5;entryDx=0;entryDy=0;" parent="1" source="mlFDoJzG74F5DoCi1j2A-2" target="mlFDoJzG74F5DoCi1j2A-1" edge="1">
                    <mxGeometry width="100" height="100" relative="1" as="geometry">
                        <mxPoint x="933" y="376" as="sourcePoint"/>
                        <mxPoint x="1033" y="276" as="targetPoint"/>
                    </mxGeometry>
                </mxCell>
                <mxCell id="mlFDoJzG74F5DoCi1j2A-11" value="" style="sketch=0;pointerEvents=1;shadow=0;dashed=0;html=1;strokeColor=none;fillColor=#505050;labelPosition=center;verticalLabelPosition=bottom;verticalAlign=top;outlineConnect=0;align=center;shape=mxgraph.office.users.user;" parent="1" vertex="1">
                    <mxGeometry x="573" y="128" width="46" height="50" as="geometry"/>
                </mxCell>
                <mxCell id="mlFDoJzG74F5DoCi1j2A-12" value="&lt;div&gt;&lt;br&gt;&lt;/div&gt;&lt;div&gt;&lt;br&gt;&lt;/div&gt;" style="strokeColor=#dddddd;shadow=1;strokeWidth=1;rounded=1;absoluteArcSize=1;arcSize=2;labelPosition=center;verticalLabelPosition=middle;align=center;verticalAlign=bottom;spacingLeft=0;fontColor=#999999;fontSize=12;whiteSpace=wrap;spacingBottom=2;html=1;" parent="1" vertex="1">
                    <mxGeometry x="619" y="108" width="70" height="70" as="geometry"/>
                </mxCell>
                <mxCell id="mlFDoJzG74F5DoCi1j2A-13" value="" style="sketch=0;dashed=0;connectable=0;html=1;fillColor=#757575;strokeColor=none;shape=mxgraph.gcp2.phone;part=1;" parent="mlFDoJzG74F5DoCi1j2A-12" vertex="1">
                    <mxGeometry x="0.5" width="32" height="50" relative="1" as="geometry">
                        <mxPoint x="-16" y="10" as="offset"/>
                    </mxGeometry>
                </mxCell>
                <mxCell id="mlFDoJzG74F5DoCi1j2A-16" value="" style="strokeColor=#dddddd;shadow=1;strokeWidth=1;rounded=1;absoluteArcSize=1;arcSize=2;labelPosition=center;verticalLabelPosition=middle;align=center;verticalAlign=bottom;spacingLeft=0;fontColor=#999999;fontSize=12;whiteSpace=wrap;spacingBottom=2;html=1;" parent="1" vertex="1">
                    <mxGeometry x="619" y="212" width="70" height="70" as="geometry"/>
                </mxCell>
                <mxCell id="mlFDoJzG74F5DoCi1j2A-17" value="" style="sketch=0;dashed=0;connectable=0;html=1;fillColor=#757575;strokeColor=none;shape=mxgraph.gcp2.laptop;part=1;" parent="mlFDoJzG74F5DoCi1j2A-16" vertex="1">
                    <mxGeometry x="0.5" width="50" height="33" relative="1" as="geometry">
                        <mxPoint x="-25" y="18.5" as="offset"/>
                    </mxGeometry>
                </mxCell>
                <mxCell id="mlFDoJzG74F5DoCi1j2A-18" value="" style="sketch=0;pointerEvents=1;shadow=0;dashed=0;html=1;strokeColor=none;fillColor=#505050;labelPosition=center;verticalLabelPosition=bottom;verticalAlign=top;outlineConnect=0;align=center;shape=mxgraph.office.users.user;" parent="1" vertex="1">
                    <mxGeometry x="573" y="232" width="46" height="50" as="geometry"/>
                </mxCell>
                <mxCell id="mlFDoJzG74F5DoCi1j2A-19" value="" style="endArrow=classic;startArrow=classic;html=1;rounded=0;exitX=1;exitY=0.5;exitDx=0;exitDy=0;entryX=0;entryY=0.25;entryDx=0;entryDy=0;" parent="1" source="mlFDoJzG74F5DoCi1j2A-12" target="mlFDoJzG74F5DoCi1j2A-2" edge="1">
                    <mxGeometry width="50" height="50" relative="1" as="geometry">
                        <mxPoint x="963" y="256" as="sourcePoint"/>
                        <mxPoint x="1013" y="206" as="targetPoint"/>
                    </mxGeometry>
                </mxCell>
                <mxCell id="mlFDoJzG74F5DoCi1j2A-20" value="" style="endArrow=classic;startArrow=classic;html=1;rounded=0;exitX=1;exitY=0.5;exitDx=0;exitDy=0;" parent="1" source="mlFDoJzG74F5DoCi1j2A-16" target="mlFDoJzG74F5DoCi1j2A-2" edge="1">
                    <mxGeometry width="50" height="50" relative="1" as="geometry">
                        <mxPoint x="963" y="256" as="sourcePoint"/>
                        <mxPoint x="1013" y="206" as="targetPoint"/>
                    </mxGeometry>
                </mxCell>
                <mxCell id="mlFDoJzG74F5DoCi1j2A-21" value="ホスティング" style="text;html=1;align=center;verticalAlign=middle;whiteSpace=wrap;rounded=0;" parent="1" vertex="1">
                    <mxGeometry x="807.8" y="320" width="113.7" height="30" as="geometry"/>
                </mxCell>
                <mxCell id="mlFDoJzG74F5DoCi1j2A-22" value="DB" style="text;html=1;align=center;verticalAlign=middle;whiteSpace=wrap;rounded=0;" parent="1" vertex="1">
                    <mxGeometry x="1055.6499999999999" y="320" width="113.7" height="30" as="geometry"/>
                </mxCell>
                <mxCell id="mlFDoJzG74F5DoCi1j2A-24" value="保存データ" style="swimlane;fontStyle=0;childLayout=stackLayout;horizontal=1;startSize=30;horizontalStack=0;resizeParent=1;resizeParentMax=0;resizeLast=0;collapsible=1;marginBottom=0;whiteSpace=wrap;html=1;" parent="1" vertex="1">
                    <mxGeometry x="950" y="260" width="100" height="120" as="geometry"/>
                </mxCell>
                <mxCell id="mlFDoJzG74F5DoCi1j2A-25" value="コース情報" style="text;strokeColor=none;fillColor=none;align=left;verticalAlign=middle;spacingLeft=4;spacingRight=4;overflow=hidden;points=[[0,0.5],[1,0.5]];portConstraint=eastwest;rotatable=0;whiteSpace=wrap;html=1;" parent="mlFDoJzG74F5DoCi1j2A-24" vertex="1">
                    <mxGeometry y="30" width="100" height="30" as="geometry"/>
                </mxCell>
                <mxCell id="mlFDoJzG74F5DoCi1j2A-26" value="選手情報" style="text;strokeColor=none;fillColor=none;align=left;verticalAlign=middle;spacingLeft=4;spacingRight=4;overflow=hidden;points=[[0,0.5],[1,0.5]];portConstraint=eastwest;rotatable=0;whiteSpace=wrap;html=1;" parent="mlFDoJzG74F5DoCi1j2A-24" vertex="1">
                    <mxGeometry y="60" width="100" height="30" as="geometry"/>
                </mxCell>
                <mxCell id="mlFDoJzG74F5DoCi1j2A-27" value="チャレンジ結果" style="text;strokeColor=none;fillColor=none;align=left;verticalAlign=middle;spacingLeft=4;spacingRight=4;overflow=hidden;points=[[0,0.5],[1,0.5]];portConstraint=eastwest;rotatable=0;whiteSpace=wrap;html=1;" parent="mlFDoJzG74F5DoCi1j2A-24" vertex="1">
                    <mxGeometry y="90" width="100" height="30" as="geometry"/>
                </mxCell>
                <mxCell id="2" value="" style="strokeColor=#dddddd;shadow=1;strokeWidth=1;rounded=1;absoluteArcSize=1;arcSize=2;labelPosition=center;verticalLabelPosition=middle;align=center;verticalAlign=bottom;spacingLeft=0;fontColor=#999999;fontSize=12;whiteSpace=wrap;spacingBottom=2;html=1;" parent="1" vertex="1">
                    <mxGeometry x="619" y="318" width="70" height="70" as="geometry"/>
                </mxCell>
                <mxCell id="3" value="" style="sketch=0;dashed=0;connectable=0;html=1;fillColor=#757575;strokeColor=none;shape=mxgraph.gcp2.laptop;part=1;" parent="2" vertex="1">
                    <mxGeometry x="0.5" width="50" height="33" relative="1" as="geometry">
                        <mxPoint x="-25" y="18.5" as="offset"/>
                    </mxGeometry>
                </mxCell>
                <mxCell id="4" value="" style="sketch=0;pointerEvents=1;shadow=0;dashed=0;html=1;strokeColor=none;fillColor=#505050;labelPosition=center;verticalLabelPosition=bottom;verticalAlign=top;outlineConnect=0;align=center;shape=mxgraph.office.users.user;" parent="1" vertex="1">
                    <mxGeometry x="573" y="338" width="46" height="50" as="geometry"/>
                </mxCell>
                <mxCell id="5" value="" style="endArrow=classic;startArrow=classic;html=1;rounded=0;exitX=1;exitY=0.5;exitDx=0;exitDy=0;" parent="1" source="2" target="mlFDoJzG74F5DoCi1j2A-2" edge="1">
                    <mxGeometry width="50" height="50" relative="1" as="geometry">
                        <mxPoint x="963" y="314" as="sourcePoint"/>
                        <mxPoint x="803" y="317" as="targetPoint"/>
                    </mxGeometry>
                </mxCell>
                <mxCell id="6" value="審判" style="text;html=1;align=center;verticalAlign=middle;whiteSpace=wrap;rounded=0;" parent="1" vertex="1">
                    <mxGeometry x="580" y="182" width="113.7" height="30" as="geometry"/>
                </mxCell>
                <mxCell id="7" value="集計" style="text;html=1;align=center;verticalAlign=middle;whiteSpace=wrap;rounded=0;" parent="1" vertex="1">
                    <mxGeometry x="580" y="282" width="113.7" height="30" as="geometry"/>
                </mxCell>
                <mxCell id="8" value="大会運営" style="text;html=1;align=center;verticalAlign=middle;whiteSpace=wrap;rounded=0;" parent="1" vertex="1">
                    <mxGeometry x="580" y="388" width="113.7" height="30" as="geometry"/>
                </mxCell>
                <mxCell id="10" value="インターネット" style="rounded=0;whiteSpace=wrap;html=1;textDirection=vertical-lr;" parent="1" vertex="1">
                    <mxGeometry x="729" y="161" width="40" height="167" as="geometry"/>
                </mxCell>
            </root>
        </mxGraphModel>
    </diagram>
</mxfile>